<svg xmlns="http://www.w3.org/2000/svg" version="1.1" xmlns:xlink="http://www.w3.org/1999/xlink" width="200" height="200"><svg xmlns="http://www.w3.org/2000/svg" version="1.1" xmlns:xlink="http://www.w3.org/1999/xlink" viewBox="0 0 200 200"><rect width="200" height="200" fill="url('#gradient')"></rect><defs><linearGradient id="SvgjsLinearGradient1001" gradientTransform="rotate(45 0.5 0.5)"><stop offset="0%" stop-color="#dee90b"></stop><stop offset="100%" stop-color="#d9e241"></stop></linearGradient></defs><g><g fill="#1b3855" transform="matrix(4.503298314194967,0,0,4.503298314194967,10.135632000683344,132.017826481667)" stroke="#0e5278" stroke-width="0.2"><path d="M9.98 0L9.15-2.66L4.45-2.66L3.63 0L-0.03 0L5.19-14.22L8.41-14.22L13.66 0L9.98 0ZM6.80-10.23L5.27-5.30L8.33-5.30L6.80-10.23ZM26.58-14.22L26.58 0L23.17 0L23.17-5.94L18.13-5.94L18.13 0L14.70 0L14.70-14.22L18.13-14.22L18.13-8.57L23.17-8.57L23.17-14.22L26.58-14.22ZM34.37-4.82L32.18-4.82L32.18 0L28.75 0L28.75-14.22L34.42-14.22Q36.05-14.22 37.31-13.62Q38.56-13.02 39.25-11.91Q39.94-10.80 39.94-9.39L39.94-9.39Q39.94-7.31 38.45-6.07Q36.96-4.82 34.37-4.82L34.37-4.82ZM32.18-11.57L32.18-7.47L34.42-7.47Q35.42-7.47 35.94-7.97Q36.46-8.47 36.46-9.38L36.46-9.38Q36.46-10.37 35.93-10.97Q35.39-11.56 34.46-11.57L34.46-11.57L32.18-11.57Z"></path></g></g></svg><style>@media (prefers-color-scheme: light) { :root { filter: contrast(1) brightness(1); } }
@media (prefers-color-scheme: dark) { :root { filter: none; } }
</style></svg>